<?xml version="1.0" encoding="utf-8"?>
<!-- Generator: Adobe Illustrator 25.2.3, SVG Export Plug-In . SVG Version: 6.00 Build 0)  -->
<svg version="1.1" id="Layer_1" xmlns="http://www.w3.org/2000/svg" xmlns:xlink="http://www.w3.org/1999/xlink" x="0px"
	 y="0px" viewBox="0 0 555.1 95.9" style="enable-background:new 0 0 555.1 95.9;" xml:space="preserve">
	<style type="text/css">
		.st0 {
			fill: #32C5F4;
		}

		.st1 {
			fill: #ED2124;
		}

		.st2 {
			fill: #9DCD5E;
		}
	</style>
	<path class="st0" d="M135.2,5.5v22.7c0,0.4,0.1,0.6,0.2,0.8c0.1,0.2,0.4,0.3,0.8,0.3h25.1v8.4h-32.9c-0.9,0-1.5-0.2-1.8-0.6
	c-0.4-0.4-0.5-1-0.5-1.8V5.5H135.2 M135.2,3.5h-9.1c-1.1,0-2,0.9-2,2v29.6c0,1.3,0.3,2.3,1,3.1c0.7,0.9,1.9,1.4,3.3,1.4h32.9
	c1.1,0,2-0.9,2-2v-8.4c0-1.1-0.9-2-2-2h-24.2V5.5C137.2,4.4,136.3,3.5,135.2,3.5" />
	<path class="st0" d="M248.2,5.5v30.8c0,0.9-0.4,1.3-1.2,1.3h-13c-0.6,0-1.1-0.1-1.4-0.3c-0.3-0.2-0.6-0.5-0.9-1l-12.6-23
	c-0.2-0.4-0.5-0.5-0.8-0.5h-0.4c-0.5,0-0.7,0.2-0.7,0.7v24.1H209V6.9c0-0.9,0.4-1.3,1.2-1.3h13.5c0.7,0,1.2,0.1,1.4,0.3
	c0.3,0.2,0.5,0.5,0.8,1l12.1,23c0.2,0.4,0.5,0.5,0.8,0.5h0.5c0.5,0,0.7-0.2,0.7-0.7V5.5H248.2 M248.2,3.5H240c-1.1,0-2,0.9-2,2v20.1
	L227.6,5.9c-0.4-0.7-0.8-1.3-1.4-1.6c-0.6-0.5-1.5-0.7-2.6-0.7h-13.5c-1.9,0-3.2,1.3-3.2,3.3v30.8c0,1.1,0.9,2,2,2h8.2
	c1.1,0,2-0.9,2-2V17.5l10.8,19.8c0.4,0.8,1,1.4,1.6,1.8c0.6,0.4,1.4,0.5,2.4,0.5h13c1.9,0,3.2-1.3,3.2-3.3V5.5
	C250.2,4.4,249.3,3.5,248.2,3.5" />
	<path class="st0" d="M323.7,37.6h-9.1V5.5h9.1V37.6z M323.7,3.5h-9.1c-1.1,0-2,0.9-2,2v32.1c0,1.1,0.9,2,2,2h9.1c1.1,0,2-0.9,2-2
	V5.5C325.7,4.4,324.8,3.5,323.7,3.5" />
	<path class="st0" d="M367.5,5.5c0.9,0,1.4,0.5,1.4,1.4v6.6l-8.4,3.1h-0.4v-3.5c0-0.4-0.2-0.5-0.5-0.5h-16.9c-0.6,0-1,0.1-1.3,0.4
	c-0.2,0.3-0.4,0.6-0.4,1.1v0.8c0,0.6,0.1,1,0.3,1.2c0.2,0.2,0.6,0.3,1.2,0.4l19.9,2.8c1.3,0.2,2.3,0.4,3.2,0.8
	c0.9,0.4,1.6,0.9,2.2,1.5s1,1.3,1.2,2.2c0.2,0.9,0.4,1.9,0.4,3.1v2.6c0,1.3-0.2,2.5-0.5,3.5s-0.9,1.9-1.6,2.6
	c-0.7,0.7-1.7,1.2-2.9,1.6c-1.2,0.4-2.7,0.5-4.5,0.5h-28.6v-8.3H357c0.8,0,1.3-0.1,1.5-0.4s0.4-0.8,0.4-1.5v-0.9
	c0-0.6-0.1-0.9-0.3-1.2c-0.2-0.2-0.6-0.4-1.1-0.4l-19.2-2.4c-1.3-0.2-2.4-0.4-3.3-0.8s-1.7-0.8-2.3-1.4c-0.6-0.6-1-1.3-1.3-2.2
	c-0.3-0.9-0.4-1.9-0.4-3V13c0-2.3,0.6-4.1,1.9-5.4c1.2-1.3,3.3-1.9,6.2-1.9h28.4 M367.5,3.5H339c-3.4,0-6,0.9-7.6,2.5
	c-1.6,1.7-2.4,3.9-2.4,6.8V15c0,1.4,0.2,2.6,0.5,3.6c0.4,1.2,1,2.2,1.8,3s1.8,1.4,3,1.9c1.1,0.4,2.3,0.7,3.8,0.9l18.9,2.4v0.4h-25.5
	c-1.1,0-2,0.9-2,2v8.3c0,1.1,0.9,2,2,2h28.6c2,0,3.6-0.2,5-0.6c1.5-0.4,2.8-1.1,3.7-2c1-0.9,1.7-2.1,2.1-3.4
	c0.4-1.2,0.6-2.6,0.6-4.1v-2.6c0-1.4-0.1-2.6-0.4-3.6c-0.3-1.2-0.9-2.2-1.7-3.1c-0.8-0.8-1.7-1.5-2.9-1.9c-0.7-0.3-1.6-0.6-2.5-0.7
	l5.7-2.1c0.8-0.3,1.3-1,1.3-1.9V7C370.9,4.9,369.5,3.5,367.5,3.5 M343.2,14.6h14.9v2.1l0,0L343.2,14.6z" />
	<path class="st0" d="M385.1,5.5v22.7c0,0.4,0.1,0.6,0.2,0.8c0.1,0.2,0.4,0.3,0.8,0.3h25.1v8.4h-32.9c-0.9,0-1.5-0.2-1.8-0.6
	c-0.4-0.4-0.5-1-0.5-1.8V5.5H385.1 M385.1,3.5H376c-1.1,0-2,0.9-2,2v29.6c0,1.3,0.3,2.3,1,3.1c0.7,0.9,1.9,1.4,3.3,1.4h32.9
	c1.1,0,2-0.9,2-2v-8.4c0-1.1-0.9-2-2-2H387V5.5C387.1,4.4,386.2,3.5,385.1,3.5" />
	<path class="st0"
		  d="M445.2,5.5c0.5,0,0.9,0.1,1.1,0.2s0.4,0.4,0.7,0.8l16,30.7v0.4h-27.5l-2.6-7v-0.9h9h2.4c0.7,0,1.3,0,1.8,0
	s1,0,1.4,0.1c0.4,0,0.8,0.1,1.2,0.1l0.1-0.3c-0.2-0.3-0.4-0.6-0.6-0.9s-0.4-0.7-0.6-1.1s-0.5-1-0.8-1.6s-0.7-1.4-1.2-2.3l-5.1-10.1
	c-0.1-0.2-0.3-0.3-0.6-0.3h-0.5c-0.3,0-0.5,0.1-0.6,0.3l-11.9,24.1h-10.5v-0.4l16.1-30.7c0.2-0.4,0.4-0.7,0.6-0.8
	c0.2-0.1,0.6-0.2,1.1-0.2h11 M445.2,3.5h-11.1c-0.9,0-1.7,0.2-2.2,0.6c-0.5,0.3-0.9,0.9-1.2,1.6l-16.1,30.6
	c-0.2,0.3-0.2,0.6-0.2,0.9v0.4c0,1.1,0.9,2,2,2h10.5c0.8,0,1.5-0.4,1.8-1.1l2.8-5.7l2.1,5.5c0.3,0.8,1,1.3,1.9,1.3H463
	c1.1,0,2-0.9,2-2v-0.4c0-0.3-0.1-0.6-0.2-0.9l-16-30.7c0,0,0,0,0-0.1c-0.4-0.7-0.8-1.2-1.3-1.5C446.9,3.7,446.1,3.5,445.2,3.5
	 M434,27.8l5.7-11.5l4.1,8.3c0.5,1,0.9,1.7,1.2,2.4c0.2,0.3,0.3,0.6,0.5,0.9c-0.4,0-0.8,0-1.2,0h-2.4L434,27.8L434,27.8z" />
	<path class="st0" d="M507.8,5.5v30.8c0,0.9-0.4,1.3-1.2,1.3h-13c-0.6,0-1.1-0.1-1.4-0.3s-0.6-0.5-0.9-1l-12.6-23
	c-0.2-0.4-0.5-0.5-0.8-0.5h-0.4c-0.5,0-0.7,0.2-0.7,0.7v24.1h-8.2V6.9c0-0.9,0.4-1.3,1.2-1.3h13.5c0.7,0,1.2,0.1,1.4,0.3
	c0.3,0.2,0.5,0.5,0.8,1L497.7,30c0.2,0.4,0.5,0.5,0.8,0.5h0.5c0.5,0,0.7-0.2,0.7-0.7V5.5H507.8 M507.8,3.5h-8.2c-1.1,0-2,0.9-2,2
	v20.1L487.1,5.9c-0.4-0.7-0.8-1.3-1.4-1.6c-0.6-0.5-1.5-0.7-2.6-0.7h-13.5c-1.9,0-3.2,1.3-3.2,3.3v30.8c0,1.1,0.9,2,2,2h8.2
	c1.1,0,2-0.9,2-2V17.5l10.8,19.8c0.4,0.8,1,1.4,1.6,1.8c0.6,0.4,1.4,0.5,2.4,0.5h13c1.9,0,3.2-1.3,3.2-3.3V5.5
	C509.8,4.4,508.9,3.5,507.8,3.5" />
	<path class="st0" d="M540,5.5c2.4,0,4.4,0.3,6.1,0.9c1.7,0.6,3,1.5,4.1,2.6c1,1.1,1.8,2.4,2.2,4c0.5,1.6,0.7,3.3,0.7,5.3v6.6
	c0,1.9-0.2,3.7-0.7,5.3s-1.2,2.9-2.2,4s-2.4,2-4.1,2.6c-1.7,0.6-3.7,0.9-6.1,0.9h-13l-2.9-7.5h-0.4v7.5h-9.1V6.9
	c0-0.9,0.4-1.3,1.2-1.3H540 M523.8,29.3h15.4c1.7,0,3-0.4,3.7-1.1c0.7-0.8,1.1-2.1,1.1-4.1v-5.4c0-2-0.4-3.4-1.1-4.1
	c-0.7-0.7-2-1.1-3.7-1.1h-14.7c-0.2,0-0.4,0.1-0.5,0.2c-0.1,0.1-0.2,0.3-0.2,0.5V29.3 M540,3.5h-24c-1.9,0-3.2,1.3-3.2,3.3v30.8
	c0,1.1,0.9,2,2,2h9.1c0.7,0,1.3-0.3,1.6-0.8c0.4,0.5,1,0.8,1.6,0.8h13c2.6,0,4.9-0.3,6.8-1c2-0.7,3.6-1.7,4.8-3.1
	c1.2-1.3,2.1-2.9,2.7-4.8c0.5-1.8,0.8-3.7,0.8-5.8v-6.6c0-2.1-0.3-4.1-0.8-5.8c-0.6-1.9-1.5-3.5-2.7-4.8s-2.9-2.4-4.8-3.1
	C544.9,3.9,542.6,3.5,540,3.5 M525.8,15.6h13.4c1.7,0,2.2,0.4,2.3,0.5c0,0,0.5,0.5,0.5,2.6v5.4c0,2-0.5,2.6-0.5,2.7
	c-0.2,0.2-0.7,0.5-2.3,0.5h-13.4V15.6z" />
	<path class="st0" d="M292,5.5c0.9,0,1.3,0.4,1.3,1.3v6.9l-8.4,3.1l0,0h-0.1h-0.4v-3.1c0-0.3-0.1-0.4-0.4-0.4h-15.3
	c-0.9,0-1.6,0.1-2.2,0.2c-0.6,0.2-1.1,0.4-1.5,0.8c-0.4,0.4-0.7,0.9-0.8,1.6c-0.2,0.7-0.3,1.5-0.3,2.4v5.6c0,1.9,0.4,3.3,1.1,4.1
	c0.7,0.8,2,1.1,3.7,1.1h15.1c0.3,0,0.5-0.2,0.5-0.5v-2.3h-5.8l-2.6-7v-0.9h9c0.7,0,1.3,0,2,0c2.1,0,4.2,0,6.3,0.2v7.7v9.9
	c0,0.8-0.4,1.2-1.1,1.2H292h-24h-0.1c-2.4,0-4.4-0.3-6.1-0.9c-1.7-0.6-3-1.5-4.1-2.6c-1-1.1-1.8-2.4-2.2-4c-0.5-1.6-0.7-3.3-0.7-5.3
	V18c0-1.9,0.2-3.7,0.7-5.3s1.2-2.9,2.2-4s2.4-2,4.1-2.6s3.7-0.9,6.1-0.9h0.1h24V5.5 M292,3.5L292,3.5h-24h-0.1c-2.6,0-4.9,0.3-6.8,1
	c-2,0.7-3.6,1.7-4.8,3.1c-1.2,1.3-2.1,2.9-2.7,4.8c-0.5,1.8-0.8,3.7-0.8,5.8v6.6c0,2.1,0.3,4.1,0.8,5.8c0.6,1.9,1.5,3.5,2.7,4.8
	c1.2,1.3,2.9,2.4,4.8,3.1c1.9,0.7,4.2,1,6.8,1h0.1h24.1h0.1c1.9,0,3.1-1.3,3.1-3.2v-9.9v-7.7c0-1-0.8-1.9-1.8-2
	c-0.8-0.1-1.5-0.1-2.3-0.1l2.8-1c0.8-0.3,1.3-1,1.3-1.9V6.9C295.3,4.9,294,3.5,292,3.5 M276.8,27.3h-8c-1.6,0-2.1-0.4-2.3-0.5
	c-0.1-0.1-0.5-0.7-0.5-2.7v-5.6c0-0.8,0.1-1.4,0.2-1.9c0.1-0.3,0.2-0.6,0.3-0.7c0.1-0.1,0.3-0.2,0.6-0.3c0.4-0.1,1-0.2,1.7-0.2h13.7
	v1.3H276c-1.1,0-2,0.9-2,2v0.9c0,0.2,0,0.5,0.1,0.7L276.8,27.3C276.8,27.2,276.8,27.3,276.8,27.3" />
	<path class="st1" d="M139.4,54v27.2c0,0.4,0.1,0.7,0.3,1c0.2,0.2,0.5,0.3,1,0.3h30.1v10h-39.5c-1,0-1.7-0.3-2.2-0.8
	c-0.4-0.5-0.6-1.2-0.6-2.2V54H139.4 M139.4,52h-10.9c-1.1,0-2,0.9-2,2v35.5c0,1.4,0.4,2.6,1.1,3.5c0.8,1,2.1,1.5,3.7,1.5h39.5
	c1.1,0,2-0.9,2-2v-10c0-1.1-0.9-2-2-2h-29.4V54C141.4,52.9,140.5,52,139.4,52" />
	<path class="st1" d="M212.9,54c0.6,0,1,0.1,1.3,0.3s0.5,0.5,0.8,1l19.1,36.8v0.4h-32.9l-3.2-8.4V83h10.8h2.9c0.8,0,1.6,0,2.2,0
	s1.2,0,1.7,0.1c0.5,0,1,0.1,1.4,0.1l0.2-0.4c-0.2-0.4-0.4-0.8-0.7-1.1c-0.2-0.4-0.5-0.8-0.8-1.3s-0.6-1.2-1-1.9
	c-0.4-0.7-0.9-1.7-1.4-2.8l-6.1-12.2c-0.1-0.2-0.4-0.4-0.7-0.4h-0.6c-0.3,0-0.5,0.1-0.7,0.4l-14.3,28.9h-12.6V92l19.3-36.8
	c0.2-0.5,0.5-0.8,0.7-1s0.7-0.3,1.3-0.3h13.3 M212.9,52h-13.3c-1.1,0-1.8,0.2-2.4,0.6c-0.5,0.4-1,0.9-1.4,1.7l-19.3,36.8
	c-0.2,0.3-0.2,0.6-0.2,0.9v0.4c0,1.1,0.9,2,2,2h12.6c0.8,0,1.5-0.4,1.8-1.1l3.8-7.6l2.8,7.5c0.3,0.8,1,1.3,1.9,1.3h32.9
	c1.1,0,2-0.9,2-2v-0.4c0-0.3-0.1-0.6-0.2-0.9l-19.1-36.8c0,0,0,0,0-0.1c-0.5-0.8-0.9-1.3-1.4-1.7C214.7,52.2,213.9,52,212.9,52
	 M198.8,81.1l7.5-15l5.3,10.6c0.6,1.1,1.1,2.1,1.4,2.8c0.3,0.6,0.6,1.2,0.9,1.6c-0.6,0-1.3,0-2.1,0h-2.9H198.8z" />
	<path class="st1" d="M284.3,54c1.1,0,1.6,0.6,1.6,1.7v7.9l-10.1,3.7h-0.4v-4.2c0-0.4-0.2-0.6-0.6-0.6h-20.3c-0.7,0-1.3,0.2-1.5,0.5
	c-0.3,0.3-0.4,0.8-0.4,1.4v1c0,0.7,0.1,1.2,0.4,1.4c0.2,0.2,0.7,0.4,1.4,0.5l23.9,3.3c1.5,0.2,2.8,0.5,3.9,1c1.1,0.4,1.9,1,2.6,1.7
	s1.1,1.6,1.4,2.7s0.4,2.3,0.4,3.8v3.1c0,1.6-0.2,3-0.6,4.2s-1,2.2-1.9,3.1c-0.9,0.8-2,1.5-3.5,1.9c-1.4,0.4-3.2,0.6-5.3,0.6H241v-10
	h30.7c0.9,0,1.5-0.2,1.8-0.5s0.4-0.9,0.4-1.8v-1.1c0-0.7-0.1-1.1-0.3-1.4c-0.2-0.3-0.7-0.4-1.3-0.5l-23.1-2.9c-1.6-0.2-2.9-0.5-4-1
	c-1.1-0.4-2-1-2.7-1.7s-1.2-1.6-1.5-2.6s-0.5-2.2-0.5-3.6v-2.7c0-2.8,0.7-4.9,2.2-6.5c1.5-1.5,3.9-2.3,7.4-2.3L284.3,54 M284.3,52
	h-34.2c-4,0-7,1-8.9,2.9c-1.8,1.9-2.8,4.6-2.8,7.9v2.7c0,1.6,0.2,3,0.6,4.2c0.4,1.3,1.1,2.5,2,3.4s2.1,1.6,3.4,2.1
	c1.2,0.5,2.7,0.8,4.4,1.1l23,2.9v1c0,0.1,0,0.2,0,0.3c-0.1,0-0.2,0-0.3,0h-30.7c-1.1,0-2,0.9-2,2v10c0,1.1,0.9,2,2,2h34.3
	c2.3,0,4.3-0.2,5.9-0.7c1.7-0.5,3.2-1.3,4.3-2.3c1.1-1.1,2-2.4,2.4-3.9c0.4-1.4,0.7-3,0.7-4.8v-3.1c0-1.6-0.2-3-0.5-4.3
	c-0.4-1.4-1-2.6-1.9-3.5s-2-1.7-3.3-2.2c-1.2-0.5-2.7-0.9-4.4-1.1l0,0l8.1-3c0.8-0.3,1.3-1,1.3-1.9v-7.9C288,53.4,286.5,52,284.3,52
	 M254.5,64.5h18.9v2.8c0,0.2,0,0.3,0.1,0.5l-18.9-2.6c0,0,0,0-0.1,0V64.5z" />
	<path class="st1" d="M337,54c1.1,0,1.6,0.5,1.6,1.6v10l-10.1,3.8h-0.4v-5.1c0-0.4-0.2-0.6-0.5-0.6h-21.8c-0.3,0-0.5,0.1-0.6,0.2
	c-0.1,0.2-0.1,0.3-0.1,0.5v4.8h18V77H308l-2.5-6.8H305v11.5c0,0.5,0.2,0.7,0.7,0.7h32.5v10h-42.6c-1,0-1.5-0.5-1.5-1.6V55.6
	c0-1.1,0.5-1.6,1.5-1.6H337 M337,52h-41.3c-2.1,0-3.5,1.4-3.5,3.6v35.3c0,2.2,1.4,3.6,3.5,3.6h42.6c1.1,0,2-0.9,2-2v-10
	c0-1.1-0.9-2-2-2H307v-1.7c0.3,0.1,0.6,0.2,0.9,0.2H323c1.1,0,2-0.9,2-2v-7.8c0-1.1-0.9-2-2-2h-16v-1.5h19v3.7c0,1.1,0.9,2,2,2h0.4
	c0.2,0,0.5,0,0.7-0.1l10.1-3.8c0.8-0.3,1.3-1,1.3-1.9v-10C340.6,53.4,339.2,52,337,52" />
	<path class="st1" d="M452.7,54c1,0,1.5,0.5,1.5,1.6v10l-10.1,3.8h-0.4v-5.1c0-0.4-0.2-0.6-0.6-0.6H432v28.9h-10.9v-29h-16l-3.5-9.2
	V54H452.7 M452.7,52h-51c-1.1,0-2,0.9-2,2v0.4c0,0.2,0,0.5,0.1,0.7l3.5,9.2c0.3,0.8,1,1.3,1.9,1.3h14v26.9c0,1.1,0.9,2,2,2h10.9
	c1.1,0,2-0.9,2-2V65.6h7.6v3.7c0,1.1,0.9,2,2,2h0.4c0.2,0,0.5,0,0.7-0.1l10.1-3.8c0.8-0.3,1.3-1,1.3-1.9v-10
	C456.2,53.4,454.8,52,452.7,52" />
	<path class="st1" d="M483.2,54c0.6,0,1,0.1,1.3,0.3s0.5,0.5,0.8,1l19.1,36.8v0.4h-32.9l-3.2-8.4V83h10.8h2.9c0.8,0,1.6,0,2.2,0
	s1.2,0,1.7,0.1c0.5,0,1,0.1,1.4,0.1l0.2-0.4c-0.2-0.4-0.4-0.8-0.7-1.1c-0.2-0.4-0.5-0.8-0.8-1.3s-0.6-1.2-1-1.9s-0.9-1.7-1.4-2.8
	l-6.1-12.2c-0.1-0.2-0.4-0.4-0.7-0.4h-0.6c-0.3,0-0.5,0.1-0.7,0.4l-14.3,28.9h-12.6V92l19.3-36.8c0.2-0.5,0.5-0.8,0.7-1
	s0.7-0.3,1.3-0.3h13.3 M483.2,52h-13.3c-1.1,0-1.8,0.2-2.4,0.6c-0.5,0.4-1,0.9-1.4,1.7l-19.3,36.8c-0.2,0.3-0.2,0.6-0.2,0.9v0.4
	c0,1.1,0.9,2,2,2h12.6c0.8,0,1.5-0.4,1.8-1.1l3.8-7.6l2.8,7.5c0.3,0.8,1,1.3,1.9,1.3h32.9c1.1,0,2-0.9,2-2v-0.4
	c0-0.3-0.1-0.6-0.2-0.9l-19.1-36.8c0,0,0,0,0-0.1c-0.5-0.8-0.9-1.3-1.4-1.7C485,52.2,484.2,52,483.2,52 M469.1,81.1l7.5-15l5.3,10.6
	c0.6,1.1,1.1,2.1,1.4,2.8c0.3,0.6,0.6,1.2,0.9,1.6c-0.6,0-1.3,0-2.1,0h-2.9H469.1z" />
	<path class="st1"
		  d="M551.6,54c1,0,1.5,0.5,1.5,1.6v8.3L543,67.6l0,0h-0.1h-0.4v-3.7c0-0.4-0.2-0.5-0.5-0.5h-18.3
	c-1.1,0-1.9,0.1-2.7,0.3c-0.7,0.2-1.3,0.5-1.8,1s-0.8,1.1-1,1.9s-0.3,1.8-0.3,2.9v6.8c0,2.3,0.4,3.9,1.3,4.9
	c0.9,0.9,2.4,1.4,4.4,1.4h18.2c0.4,0,0.6-0.2,0.6-0.6v-2.7h-7l-3.2-8.4v-1.1H543c0.8,0,1.6,0,2.4,0c2.5,0,5.1,0,7.6,0.2l-0.1,9.2V91
	c0,1-0.4,1.5-1.3,1.5h-0.1h-28.9h-0.1c-2.9,0-5.3-0.4-7.3-1.1s-3.6-1.7-4.9-3.1c-1.2-1.3-2.1-2.9-2.7-4.8s-0.8-4-0.8-6.3v-7.9
	c0-2.3,0.3-4.4,0.8-6.3c0.6-1.9,1.5-3.5,2.7-4.8s2.9-2.3,4.9-3.1c2-0.7,4.4-1.1,7.3-1.1h0.1H551.6L551.6,54 M551.6,52L551.6,52
	h-28.8h-0.1c-3.1,0-5.8,0.4-8,1.2c-2.3,0.8-4.2,2-5.7,3.6c-1.4,1.5-2.5,3.4-3.2,5.6c-0.6,2.1-0.9,4.4-0.9,6.9v7.9
	c0,2.5,0.3,4.8,0.9,6.9c0.7,2.2,1.7,4.1,3.2,5.6c1.4,1.6,3.4,2.8,5.7,3.6c2.2,0.8,4.9,1.2,8,1.2h0.1h28.9h0.1c2,0,3.3-1.4,3.3-3.5
	V79.1l0.1-9.2c0-1.1-0.8-1.9-1.9-2c-1.6-0.1-3.2-0.2-4.7-0.2l5.3-1.9c0.8-0.3,1.3-1,1.3-1.9v-8.3C555.1,53.4,553.7,52,551.6,52
	 M534,80.5h-10.3c-1.5,0-2.5-0.3-3-0.8c-0.2-0.2-0.8-1.1-0.8-3.5v-6.8c0-1,0.1-1.8,0.2-2.4c0.1-0.5,0.3-0.8,0.5-1s0.5-0.4,0.8-0.5
	c0.5-0.1,1.3-0.2,2.1-0.2h16.8v2.2v0.1h-8.2c-1.1,0-2,0.9-2,2v1.1c0,0.2,0,0.5,0.1,0.7l3.2,8.4C533.7,80.1,533.8,80.3,534,80.5" />
	<path class="st1" d="M377.6,54c2.4,0,4.4,0.3,6.1,0.8c1.7,0.6,3,1.4,4,2.5s1.8,2.4,2.2,3.9c0.5,1.5,0.7,3.2,0.7,5.1v2.8
	c0,1.9-0.2,3.5-0.7,5s-1.2,2.7-2.2,3.8c-1,1-2.3,1.8-3.9,2.4s-3.5,0.8-5.8,0.8h-0.4L390.5,92v0.4h-12.3L365,80.7l-7.8-6.9h-0.4v18.6
	H346V55.6c0-1.1,0.5-1.6,1.5-1.6H377.6 M356.9,72.9h18.7c1.4,0,2.5-0.3,3.1-0.8c0.6-0.6,0.9-1.6,0.9-3.2v-1.3c0-1.5-0.3-2.5-0.9-3.1
	s-1.6-0.8-3.1-0.8h-18c-0.5,0-0.7,0.3-0.7,0.9V72.9 M377.6,52h-30.1c-2.1,0-3.5,1.4-3.5,3.6v36.9c0,1.1,0.9,2,2,2h10.9
	c1.1,0,2-0.9,2-2V78.1l4.8,4.3L377,94c0.4,0.3,0.8,0.5,1.3,0.5h12.3c1.1,0,2-0.9,2-2v-0.4c0-0.6-0.3-1.2-0.7-1.5l-9.3-7.8
	c0.7-0.1,1.3-0.3,1.9-0.5c1.9-0.7,3.4-1.6,4.7-2.9c1.2-1.3,2.1-2.8,2.7-4.6c0.5-1.7,0.8-3.6,0.8-5.6v-2.8c0-2.1-0.3-4-0.8-5.7
	c-0.5-1.8-1.5-3.4-2.7-4.7s-2.9-2.3-4.8-3C382.4,52.3,380.2,52,377.6,52 M358.9,65.6h16.7c1.4,0,1.7,0.3,1.7,0.3s0.3,0.3,0.3,1.6
	v1.3c0,1.4-0.3,1.7-0.3,1.8c0,0-0.4,0.3-1.7,0.3h-16.7V65.6z" />
	<path class="st1" d="M182.8,40.3c-10.4,0-18.9-8.5-18.9-18.9s8.5-18.9,18.9-18.9s18.9,8.5,18.9,18.9S193.2,40.3,182.8,40.3
	 M182.8,4.5c-9.3,0-16.9,7.6-16.9,16.9s7.6,16.9,16.9,16.9c9.3,0,16.9-7.6,16.9-16.9S192.1,4.5,182.8,4.5" />
	<path class="st1" d="M182.8,34.1c-7,0-12.7-5.7-12.7-12.7s5.7-12.7,12.7-12.7s12.7,5.7,12.7,12.7S189.8,34.1,182.8,34.1 M182.8,11.2
	c-5.6,0-10.2,4.6-10.2,10.2s4.6,10.2,10.2,10.2c5.6,0,10.2-4.6,10.2-10.2S188.4,11.2,182.8,11.2" />
	<path class="st1"
		  d="M182.8,16.3c-0.6,0-1-0.4-1-1V1c0-0.6,0.4-1,1-1s1,0.4,1,1v14.3C183.8,15.9,183.3,16.3,182.8,16.3" />
	<path class="st1"
		  d="M182.8,43.2c-0.6,0-1-0.4-1-1V27.9c0-0.6,0.4-1,1-1s1,0.4,1,1v14.3C183.8,42.7,183.3,43.2,182.8,43.2" />
	<path class="st1" d="M176,22.4h-15.5c-0.6,0-1-0.4-1-1s0.4-1,1-1H176c0.6,0,1,0.4,1,1C177,21.9,176.6,22.4,176,22.4" />
	<path class="st1"
		  d="M204.9,22.4h-15.5c-0.6,0-1-0.4-1-1s0.4-1,1-1h15.5c0.6,0,1,0.4,1,1C205.9,21.9,205.5,22.4,204.9,22.4" />
	<path class="st1" d="M182.8,23.6c-1.2,0-2.2-1-2.2-2.2s1-2.2,2.2-2.2s2.2,1,2.2,2.2S184,23.6,182.8,23.6" />
	<path class="st2" d="M41.9,74.1c0.5-0.2,1-0.3,1.4-0.6h0.1h0.1c0.1,0.1,0.2,0.1,0.4,0.1c0.3,0,0.5-0.2,0.8-0.4
	c0.2-0.2,0.4-0.7,0.3-1c-0.1-0.2-0.3-0.4-0.5-0.4c-0.1,0-0.1,0-0.2,0c-0.3,0.2-0.6,0.3-0.9,0.4c-0.1,0-0.2,0.1-0.2,0.2
	c0,0.2-0.1,0.3-0.2,0.3c-0.1,0-0.2,0-0.3-0.1s-0.2-0.1-0.2-0.1c-0.1,0-0.2,0.1-0.2,0.2c-0.2,0.3-0.5,0.4-0.8,0.4c-0.1,0-0.1,0-0.2,0
	c-0.1,0-0.2,0-0.3,0c-0.3,0-0.5,0.1-0.8,0.3c-0.3,0.3-0.7,0.4-0.8,0.9c-0.1,0.3-0.2,0.7-0.5,0.9c0,0-0.1,0.1-0.1,0.2
	c0,0.3-0.2,0.5-0.4,0.7c-0.3,0.3-0.5,0.5-0.8,0.8c-0.2,0.2-0.3,0.3-0.6,0.3c0,0-0.1,0-0.2,0c0,0,0,0-0.1,0c-0.2,0-0.2,0.1-0.4,0.2
	c-0.3,0.3-0.6,0.6-0.8,1c0,0-0.1,0-0.2,0.1c-0.9,0.2-1.5,0.8-2,1.6c-0.1,0.3-0.2,0.6-0.5,0.8C32.7,81,32.6,81,32.6,81
	c-0.1,0-0.1-0.1-0.2-0.2c-0.1-0.2-0.3-0.4-0.5-0.4c-0.1,0-0.2,0-0.3,0.1c-1,1-1.9,2-2.7,3.1c-0.2,0.2-0.2,0.4,0,0.6
	c0.1,0.1,0.2,0.1,0.3,0.1c0.1,0,0.2,0,0.2,0c1.2-0.6,2.2-1.2,3.1-2.2c0.3-0.3,0.6-0.6,1-0.8c1.2-0.7,2.2-1.7,3.2-2.6
	c0.8-0.7,1.5-1.7,2.3-2.4c0.2-0.2,0.4-0.3,0.6-0.4c0.8-0.4,1.6-0.9,2-1.8C41.7,74.2,41.8,74.1,41.9,74.1 M41.1,74.2
	c-0.3,0.3-0.6,0.6-0.9,0.9c-0.1-0.2,0.1-0.4,0.2-0.5c0.2-0.2,0.3-0.4,0.5-0.6c0-0.1,0.1-0.1,0.2-0.1h0.1
	C41.2,74,41.1,74.1,41.1,74.2" />
	<path class="st2"
		  d="M83.9,13.5c-0.1-0.4-0.4-0.7-0.7-1.1c-0.1-0.1-0.2-0.1-0.2-0.1c-0.1,0-0.2,0.1-0.2,0.2c-0.2,0.4-0.6,0.4-1,0.4
	h-0.1c-0.3,0-0.4-0.1-0.5-0.4c-0.3-0.9-0.8-1.8-1.4-2.6c-0.1-0.1-0.2-0.3-0.4-0.3h-0.1C79,9.7,78.8,9.8,78.7,10
	c-0.2,0.6-0.2,1.2,0,1.8c0.1,0.3,0.1,0.5-0.3,0.6c-0.2,0.1-0.3,0.2-0.3,0.4c-0.2,0.5-0.3,1-0.5,1.4c-0.1,0.2-0.1,0.4,0,0.5
	c0.4,0.6,0.8,1.2,1.5,1.5c0.1,0,0.2,0.1,0.3,0.1c0.2,0,0.2-0.1,0.3-0.3c0-0.1,0-0.2,0.1-0.3c0.3-0.2,0.4-0.3,0.5-0.3
	s0.3,0.1,0.6,0.3l0.1,0.1c0.1,0,0.2,0.1,0.3,0.1c0.2,0,0.5-0.2,0.5-0.5c0-0.1,0-0.3,0-0.4c0-0.2,0-0.2,0.1-0.2c0,0,0.1,0,0.2,0
	c0.4,0.2,0.7,0.3,1.1,0.5c0.1,0,0.2,0.1,0.3,0.1c0.1,0,0.1,0,0.2-0.1c0.2-0.2,0.5-0.5,0.4-0.8C84.1,14.2,84,13.9,83.9,13.5" />
	<path class="st2" d="M51.2,68.4c-0.9,0.7-1.9,1.4-2.7,2.3c-0.2,0.2-0.3,0.5-0.5,0.5c-0.4,0-0.6,0.4-0.8,0.6s-0.5,0.4-0.7,0.7
	c-0.1,0.1-0.2,0.1-0.3,0.1l0,0l0,0c-0.3,0-0.4,0.2-0.6,0.4c-0.6,0.9-1.4,1.5-2.5,1.8c-0.1,0-0.1,0-0.2,0c-0.1,0-0.1,0-0.2-0.1
	c-0.2-0.2-0.3-0.4-0.4-0.4c-0.1,0-0.2,0.1-0.4,0.2c0,0,0,0-0.1,0c-0.3,0.1-0.4,0.4-0.2,0.7c0.1,0.2,0.6,0.4,1,0.4c0.1,0,0.1,0,0.2,0
	c0.7-0.2,1.4-0.6,2.1-1c1.3-0.8,2.6-1.6,3.5-2.9c0.5-0.7,1.1-1.4,1.8-1.9c1.1-0.8,2.1-1.6,3.1-2.5c0.8-0.8,1.7-1.4,2-2.6
	c0-0.2,0.3-0.3,0.3-0.6c-0.5,0.4-0.9,0.8-1.3,1.2C53.3,66.5,52.3,67.5,51.2,68.4" />
	<path class="st2" d="M28.4,83.6c-0.1,0-0.3,0-0.4,0c-0.5,0-1,0.1-1.4,0.3c-0.4,0.1-1,0.2-1.2,0.7c0,0-0.1,0-0.1,0.1
	c-0.5,0.3-1,0.6-1.5,0.7c-0.7,0.2-1.4,0.5-2.2,0.8c-0.3,0.1-0.5,0.2-0.6,0.5c-0.1,0.2-0.2,0.4-0.4,0.5c-0.4,0.2-0.6,0.7-1.1,0.9
	c0,0,0,0.1,0.1,0.1c0.7-0.2,1.4-0.4,2.2-0.6c1.3-0.4,2.5-1,3.8-1.5c1.1-0.4,2.1-0.9,3.1-1.5c0.2-0.1,0.3-0.3,0.3-0.5
	C28.8,83.7,28.6,83.6,28.4,83.6" />
	<path class="st2" d="M105.4,1.8H2c-1.1,0-2,0.9-2,2v90.1c0,1.1,0.9,2,2,2h103.4c1.1,0,2-0.9,2-2V3.8C107.4,2.7,106.5,1.8,105.4,1.8
	 M101.7,5c0.1,0,0.1,0,0.2,0c0.6,0,0.9,0.4,1.2,0.9c0.1,0.2,0.3,0.5,0.4,0.7c0.1,0.1,0.1,0.2,0,0.3h-0.1c-0.1,0-0.1,0-0.2-0.1
	C102.6,6.2,102.2,5.6,101.7,5c-0.1-0.1-0.3-0.1-0.4-0.1c-0.2,0-0.3,0.1-0.4,0.3c0,0.1-0.1,0.1-0.2,0.1c-0.4,0.3-0.5,0.5-0.2,0.9
	c0.2,0.3,0.4,0.6,0.6,0.8c0.3,0.4,0.3,0.9,0.1,1.3c-0.1,0.2-0.2,0.3-0.4,0.3c-0.1,0-0.2,0-0.2-0.1c-0.2-0.1-0.4-0.2-0.5-0.3
	c-0.1,0-0.1,0-0.2,0s-0.2,0.1-0.2,0.2c-0.1,0.3-0.2,0.6-0.3,0.9c-0.2,0.7-0.2,1.4-0.7,2.1c-0.2,0.3-0.6,0.6-1,0.6
	c-0.1,0-0.2,0-0.3,0c-0.1,0-0.1,0-0.1,0c-0.2,0-0.2,0.1-0.3,0.3c-0.1,0.3-0.2,0.6-0.2,0.9c0,0.3-0.1,0.5-0.3,0.6
	c-0.2,0.2-0.3,0.4-0.3,0.6c0,0.4,0,0.8,0,1.3c0,0.3,0,0.4-0.1,0.4S95.9,16,95.8,16c-0.9-0.4-1.7-0.9-2.4-1.6
	C93.2,14.1,93.1,14,93,14s-0.1,0-0.2,0.1s-0.2,0.1-0.3,0.1c-0.1,0-0.2-0.1-0.3-0.3c-0.1-0.1-0.1-0.3-0.2-0.5c-0.2-1-0.7-1.7-1.6-2.1
	c-0.1,0-0.1-0.1-0.2-0.1h-0.1c-0.5,0.3-0.9,1.4-0.7,2c0.3,0.7,0.4,1.4,0.7,2.1c0.1,0.3,0.2,0.7,0.3,1c-0.1,0-0.2-0.1-0.3-0.1
	c-0.4-0.3-0.7-0.8-1.1-1.2c-0.5-0.5-0.9-1-1.7-1.2c-0.1,0-0.2,0-0.3,0c-0.3,0-0.6,0.2-0.8,0.4c-0.2,0.2-0.1,0.5,0,0.7
	c0.3,0.8,0.1,1.5,0.3,2.4C86.3,17.1,86.2,17,86,17s-0.2,0.2-0.4,0.5c0,0.1-0.1,0.2-0.1,0.3c-0.1,0.5-0.4,0.8-0.9,0.9
	c-0.2,0-0.4,0.2-0.6,0.3c-0.1,0-0.1,0.1-0.2,0.1s-0.1,0-0.2-0.1c-0.2-0.1-0.3-0.2-0.3-0.2c-0.1,0-0.2,0.1-0.3,0.4
	c0,0.1-0.1,0.2-0.1,0.3c-0.1,0.3-0.2,0.5-0.4,0.5c-0.1,0-0.2,0-0.3-0.1c-0.1,0-0.2-0.1-0.3-0.1c-0.1,0-0.1,0-0.1,0
	c-0.1,0-0.1,0.1-0.2,0.2c-0.1,0.3-0.2,0.6-0.3,0.9c0,0.1-0.1,0.2-0.2,0.2c0,0-0.1,0-0.2-0.1s-0.1-0.1-0.2-0.1h-0.1
	c-0.1,0-0.1,0.2-0.1,0.3c0.1,0.9-0.1,1.8-0.1,2.6c0,1.2-0.5,2.3-0.8,3.5c0,0,0,0.1-0.1,0.1c-0.3,0.2-0.3,0.4-0.1,0.7
	c0.3,0.4,0.3,0.7-0.2,1.2c-0.2,0.2-0.3,0.5-0.1,0.8c0.1,0.1,0.2,0.3,0.3,0.4c-0.1,0-0.1-0.1-0.2-0.1c-0.1-0.1-0.2-0.2-0.3-0.2
	c-0.1,0-0.2,0.1-0.2,0.3c-0.1,0.2-0.1,0.3-0.2,0.5s-0.2,0.5-0.1,0.7c0,0.3,0.2,0.5,0.5,0.6c-0.5,0.2-0.9,0.4-1.3,0.6
	c-0.7,0.3-1.3,0.6-2,0.6c-0.2,0-0.4,0-0.5-0.1c-0.3-0.1-0.6-0.1-0.9-0.1c-0.6,0-1.2,0.2-1.7,0.7h-0.1h-0.1c-0.4-0.2-0.8-0.1-1.1-0.4
	c-0.1-0.1-0.2-0.1-0.4-0.1c-0.1,0-0.1,0-0.2,0c-0.2,0-0.3,0.1-0.3,0.3c0,0.1,0,0.3-0.1,0.4c-0.5-0.3-0.7-1.1-0.5-1.7
	c0-0.1,0.1-0.1,0.1-0.1c0.3-0.1,0.6-0.3,0.9-0.4c0.5-0.2,0.9-0.5,1.1-1c0.4-0.9,0.7-2,0.8-3c0.1-0.9,0.2-1.8,0.8-2.6
	c0.2-0.2,0.4-0.4,0.5-0.7c0.2-0.3,0.4-0.5,0.7-0.5c0.1,0,0.1,0,0.2,0h0.1c0.2,0,0.3-0.1,0.4-0.4c0-0.4,0.1-0.9,0.2-1.3
	c0-0.2,0.1-0.3,0.2-0.3s0.1,0,0.2,0.1c0.2,0.2,0.3,0.3,0.5,0.5c0.1,0.1,0.3,0.1,0.5,0.1c0.1,0,0.3,0,0.3-0.1c0.2-0.2,0.2-0.4,0-0.7
	c-0.2-0.2-0.3-0.5-0.5-0.7c-0.2-0.3-0.5-0.7-0.5-1.1c-0.1-0.6-0.1-1.2,0.2-1.8c0.1-0.1,0.1-0.2,0.2-0.2c0,0,0.1,0,0.2,0.1
	c0.3,0.1,0.5,0.3,0.8,0.3c0.2,0,0.4-0.1,0.6-0.2c0.6-0.4,0.7-0.8,0.1-1.4c-0.5-0.5-1-0.8-1.8-0.9c-0.7-0.1-0.7-0.1-0.3-0.7
	c0.2-0.3,0.5-0.7,0.2-1.1c-0.1-0.1,0-0.3,0.1-0.3c0.2-0.2,0.5-0.3,0.7-0.5c0.5-0.3,0.5-0.7,0.1-1c-0.2-0.1-0.3-0.3-0.3-0.5
	s0.1-0.4,0.3-0.4c0,0,0.1,0,0.2,0s0.1,0,0.2,0c0.2,0,0.2-0.1,0.2-0.3c0-0.5,0.2-0.9,0.3-1.4c0.1-0.2-0.1-0.5,0.1-0.7
	c0.4-0.7,0.3-1.4,0.3-2.1c0-0.1-0.1-0.2,0-0.3c0.3-0.3,0.3-0.6,0.4-1c0.3,0.4,0.8,0.6,1.2,0.9C80.2,7,80.3,7,80.4,7
	c0.2,0,0.3-0.1,0.4-0.4c0.1-0.2,0.1-0.4,0.1-0.7c-0.1-0.3,0-0.5,0.3-0.5c0.6-0.1,0.9-0.5,1.1-1c0-0.1,0.1-0.1,0.1-0.2
	s0.1-0.3,0.1-0.4h19.9c-0.2,0.2-0.4,0.3-0.5,0.5C101.6,4.5,101.5,4.7,101.7,5 M81.4,29.7c0.3-0.7,0.3-1.4,0.2-2
	c0.1-0.2,0.1-0.5,0.2-0.7c0.3-0.9,0.6-2,0.6-3.2c0-0.3,0-0.6,0.1-0.9c0-0.1,0-0.2,0-0.3c0.2-0.2,0.3-0.3,0.5-0.6
	c0.4-0.1,1.1-0.3,1.5-1c0.2-0.1,0.5-0.2,0.7-0.3l0.1-0.1c0.8-0.2,1.4-0.7,1.8-1.4c0.2-0.1,0.4-0.1,0.5-0.2c0.5-0.3,0.8-0.9,0.9-1.4
	c0.1,0.1,0.2,0.2,0.4,0.3c0.2,0.1,0.6,0.4,1.3,0.5c0.1,0,0.1,0,0.2,0c0.6,0,1.1-0.3,1.5-0.7c0.4-0.4,0.5-1,0.5-1.5
	c0.1,0,0.1,0,0.2,0l0,0c0.6,0.5,1.2,0.9,1.8,1.2c-0.1,0.2-0.3,0.3-0.4,0.5c-1,1.2-1.9,2.3-2.9,3.3c-0.5,0.4-0.8,0.9-1,1.3
	c-0.1,0.1-0.2,0.3-0.3,0.4c-0.3,0.4-0.6,0.8-0.8,1.1c-0.5,0.7-1.1,1.5-1.6,2.3c-0.3,0.4-0.6,0.8-1,1.3s-0.8,1-1.1,1.5
	c-0.8,1.1-1.6,2.2-2.6,3.4c-0.1,0.1-0.2,0.2-0.3,0.3c-0.4-0.5-1-0.8-1.5-0.9c0-0.1,0-0.2,0-0.2c0.1-0.1,0.2-0.3,0.3-0.4
	C81.5,30.8,81.6,30.2,81.4,29.7 M74.2,38.4c-0.2,0.1-0.4,0.3-0.5,0.4c-0.3,0.3-0.6,0.9-0.5,1.8c0,0.1,0,0.2,0,0.4
	c0,0.1,0,0.3-0.1,0.4c-0.1,0.5,0,0.9,0.1,1.3c-0.2,0.1-0.4,0.3-0.5,0.6c-0.1,0.1-0.2,0.3-0.4,0.4c-0.3-0.2-0.7-0.4-1.2-0.4
	c-0.3,0-0.8,0.1-1.3,0.5c-0.4,0-0.7,0.1-1.1,0.3c-0.4-0.3-0.8-0.5-1.3-0.5c-0.1,0-0.3,0-0.4,0c-0.9,0.2-1.5,0.9-1.6,1.8
	c0,0.1,0,0.2,0,0.3c-0.5,0.4-0.8,1-0.9,1.9l0,0c-0.2,0.1-0.4,0.3-0.6,0.5c0,0,0,0-0.1,0s-0.2,0.1-0.4,0.2c-0.4,0-0.8,0.1-1.2,0.4
	c-0.8,0.6-1,1.6-0.6,2.5v0.1c0.1,0.1,0.2,0.3,0.3,0.5l0,0l0.1,0.3c-0.2,0.2-0.3,0.3-0.4,0.5c-0.5-0.4-1.1-0.5-1.3-0.5
	c-0.5,0-1.1,0.1-1.7,0.8c-0.2,0.2-0.3,0.3-0.5,0.5c-0.9,0.5-1.2,1.3-1.3,1.7c-0.1,0-0.1,0.1-0.2,0.1c-0.1,0-0.1,0.1-0.2,0.1
	c-0.1,0-0.2,0-0.3,0.1c-0.2,0-0.5,0.1-0.8,0.1c-0.1,0-0.2,0.1-0.3,0.1c-0.2,0-0.3,0.1-0.5,0.1c-1.2,0.3-2,1-2.5,2.1
	c-0.4,0.9-1.2,1.6-2.2,2.5c-0.3-0.1-0.6-0.1-0.9-0.1c-0.1,0-0.2,0-0.3,0c-0.5,0-0.8,0.2-1.1,0.3c-0.1,0-0.1,0-0.2,0.1
	c-0.8,0.2-1.5,0.9-1.6,1.7c0,0.3,0,0.7,0.1,1c-0.3,0-0.7,0.1-1,0.3l0,0c-0.2,0-0.3,0-0.5,0.1c-0.4-0.3-0.8-0.4-1.2-0.4
	s-0.8,0.1-1.1,0.3c-0.5,0.3-0.8,0.9-0.9,1.5c-0.4,0.4-0.5,0.9-0.5,1.1v0.1c-0.1,0.5-0.3,1-0.5,1.2L40,67.6c-0.4,0.1-0.6,0.3-0.8,0.4
	l-0.1,0.1c-0.3,0.1-0.8,0.4-1.1,1c-0.4,0.3-0.7,0.7-0.8,1.2c0,0.1,0,0.1-0.1,0.1c-0.7,0.3-1.1,0.8-1.4,1.6l0,0
	c-0.4,0.2-0.6,0.4-0.8,0.6c-0.2,0-0.5,0.1-0.7,0.2c-0.5,0.1-1,0.3-1.3,0.7c-0.1,0.1-0.2,0.2-0.2,0.4c-0.3,0.1-0.6,0.3-0.8,0.5
	c-0.3,0.1-0.6,0.2-0.9,0.4c-0.4,0.3-0.7,0.8-0.8,1.3c-0.1,0-0.1,0-0.2,0l0,0c-0.2,0-0.4,0-0.6,0.1h-0.2c-0.2,0-0.4,0.1-0.6,0.1h-0.1
	c-0.9,0.2-1.4,0.6-1.6,1.1c-0.3,0.2-0.5,0.5-0.7,0.8c0,0.1-0.1,0.2-0.1,0.4c-0.1,0-0.2,0-0.3,0.1c-0.3,0.1-0.5,0.2-0.7,0.4
	c-0.3,0.3-0.5,0.7-0.6,1c-0.3,0.2-0.6,0.5-0.8,0.9c-0.4-0.3-0.9-0.4-1.4-0.4S21.4,80.7,21,81c-0.3,0.2-0.5,0.3-0.7,0.5L20,81.7
	c-0.4,0.3-1.1,0.9-1,2.2c0,0.2,0,0.4,0.1,0.6c-0.2,0.2-0.4,0.4-0.5,0.6c-0.4,0.2-0.6,0.5-0.8,0.7c-0.1,0.1-0.2,0.2-0.4,0.2l0,0
	c0.7-1.3-0.1-2.4-0.3-2.6c-0.4-0.5-0.9-0.8-1.5-1c-0.2-0.1-0.4-0.1-0.6-0.2c-0.2-0.1-0.4-0.1-0.6-0.2c-0.2-0.1-0.4-0.2-0.5-0.2
	c-0.4-0.3-0.9-0.5-1.4-0.5c-0.1,0-0.3,0-0.4,0c-0.6,0.1-1.2,0.5-1.4,1.1c0,0.1-0.1,0.1-0.1,0.2c-0.5,0.2-0.9,0.7-1.2,1.2l0,0
	C9.3,84,9.1,84.3,9,84.7c-0.3,0.5-0.4,1-0.4,1.2c0,0,0,0,0,0.1s-0.1,0.1-0.1,0.2c-0.4,0.5-0.5,1-0.5,1.6c0,0.5,0.3,1,0.7,1.4
	C8.8,89.6,8.9,89.8,9,90c0,0,0,0,0,0.1l-0.1,0.1l-0.1,0.1c-0.6,0.3-1,0.8-1.1,1.4c-0.2,0.2-0.3,0.3-0.5,0.5C7.3,91.9,7.2,92,7,92
	c-0.2-0.4-0.6-0.9-1.4-1.2c-0.6-0.2-1.2-0.7-1.8-1.2c0-0.1,0-0.1,0-0.2c-0.1-0.5-0.1-1-0.1-1.3c0-0.5,0.1-1,0.4-1.7
	C4.5,85.5,4.5,84.7,4,84c-0.2-0.3-0.4-0.6-0.7-0.7c0-0.3,0.1-0.5,0.1-0.8C4.3,82,4.8,81.1,4.7,80c-0.1-0.4-0.1-0.9-0.1-1.5
	c0-0.2,0-0.5,0-0.7c0-0.3-0.1-0.7-0.2-1c0-0.2,0-0.5,0.1-0.9v-0.1c0.1-0.6,0.1-1.2,0.1-1.8v-0.1c0.2,0,0.3,0.1,0.5,0.1
	s0.4,0,0.5-0.1c0.1,0,0.2-0.1,0.4-0.1c0.6,0.6,1.2,0.7,1.6,0.7s0.8-0.1,1.2-0.4c0.5-0.3,0.8-0.9,0.9-1.4c0.1-0.4,0-1-0.4-1.6
	c0,0,0-0.1-0.1-0.1c0,0,0,0,0-0.1c0.1-0.1,0.2-0.2,0.3-0.4c0.3,0.1,0.6,0.1,0.9,0.2c0,0,0.1,0.1,0.1,0.2c0.1,0.1,0.2,0.2,0.4,0.4
	c0.5,0.6,1.1,0.7,1.5,0.8c0.1,0,0.1,0,0.2,0c0.6,0,1.2-0.3,1.5-0.7c0.4-0.5,0.5-1.1,0.4-1.7c0.2-0.5,0.1-1.1-0.2-1.8
	c0.2,0,0.3-0.1,0.5-0.2c0.8-0.4,1.2-1.3,1-2.1c-0.1-0.5-0.2-1-0.4-1.5c0.2,0.1,0.4,0.1,0.6,0.1c0.4,0,0.8-0.1,1.2-0.4
	c0.7-0.5,1-1.5,0.7-2.4c-0.1-0.2-0.1-0.4-0.2-0.7c-0.1-0.4-0.2-0.9-0.4-1.4c-0.4-0.9-0.6-1.7-0.6-2.5c0.4-0.2,0.6-0.5,0.9-0.8
	c0.2-0.3,0.4-0.6,0.7-0.9c0.3,0.7,0.8,1.3,1.4,1.8c0.2,0.1,0.6,0.5,1.4,0.5l0,0h0.1h0.1h0.2c0.3,0,0.7,0,1.1-0.1
	c0.5-0.1,0.8-0.3,1-0.5c0.1,0.1,0.2,0.1,0.3,0.2c0.3,0.2,0.6,0.3,0.9,0.4c0.2,0,0.3,0.1,0.5,0.1c0.7,0,1.4-0.4,1.7-1
	c0.4-0.8,0.3-1.8-0.3-2.4c-0.3-0.3-0.6-0.8-0.9-1.3c0,0,0,0,0-0.1c0.4,0,0.8-0.1,1.1-0.2H27c0.3-0.1,0.8-0.2,1.3-0.5l0,0
	c0.6,0.7,1.3,0.9,1.8,0.9c0.4,0,0.7-0.1,1-0.3c0.8-0.4,1.4-1.4,1-2.7c-0.1-0.2-0.2-0.5-0.2-0.7c-0.1-0.4-0.3-0.7-0.3-0.9l0,0
	c0,0,0,0,0-0.1c0.1-0.1,0.3-0.1,0.5-0.2c0.1-0.1,0.3-0.1,0.7-0.1c0.3,0,0.7,0.1,1.1,0.1c0.5,0.1,1,0.2,1.4,0.4
	c0.1,0,0.2,0.1,0.3,0.1s0.1,0.1,0.2,0.1c0.4,0.6,1.1,0.9,1.8,0.9c0.6,0,1.1-0.2,1.5-0.6c0.5-0.5,0.8-1.2,0.6-1.9c0-0.1,0-0.1,0-0.2
	c0.2-0.2,0.4-0.5,0.7-0.7c1-0.8,1.6-1.8,1.9-3c0.1-0.5,0.1-1,0-1.5c-0.1-0.2-0.1-0.4-0.2-0.5l0,0h0.1c0.3,0.1,0.6,0.1,0.9,0.2
	c0.1,0,0.3,0,0.3,0.1c0.2,0.1,0.4,0.1,0.6,0.1c0.6,0,1.2-0.3,1.6-0.8c0.1-0.1,0.1-0.1,0.1-0.2c0.1,0,0.2,0,0.3,0
	c1.2,0,1.8-0.8,2-1.1c0.4-0.6,0.8-0.9,1.3-1.1c1.5-0.5,3.1-1.1,4.7-1.8c1.1-0.4,2.2-1,3.3-1.6c0.3-0.2,0.8-0.3,1.4-0.4
	c1.1-0.2,2-0.7,2.8-1.1l0.2-0.1c0.7-0.4,1.2-0.8,1.7-1.2c0.3-0.2,0.5-0.4,0.8-0.6c0.4-0.3,0.9-0.5,1.5-0.8c0.7-0.3,1.2-0.7,1.6-1
	c0.2-0.2,0.4-0.3,0.5-0.4c1.2-0.7,2.1-1.7,2.9-3.1c0.2-0.3,0.3-0.6,0.5-0.9c0.2-0.4,0.4-0.8,0.6-1.1c0.5-0.7,0.5-1.3,0.5-1.6
	c0-0.7,0.1-1.4,0.4-2.3c0.2-0.7,0.5-1.3,0.9-2.1c0.2-0.4,0.5-0.9,0.8-1.3l0,0c0,0.1,0.1,0.3,0.2,0.5c0.1,0.3,0.3,0.5,0.4,0.6l0,0
	c-0.7,1.2-0.6,2.3-0.5,3.1c0,0.1,0,0.1,0,0.2c-0.3,0.3-0.5,0.7-0.6,1.2c0,0.1,0,0.2-0.1,0.3c-0.5,0.2-1,0.7-1.3,1.2
	c-0.1,0.1-0.2,0.3-0.3,0.4c-1.1,1.2-1.2,2.6-1.3,3.7c-0.1,0.8-0.3,1.6-0.6,2.3c0,0-0.1,0-0.1,0.1c-0.2,0.1-0.4,0.2-0.6,0.3l-0.3,0.1
	c-0.8,0.3-1.1,1-1.2,1.3c-0.5,1.4,0.1,3.2,1.3,4c0.3,0.2,0.7,0.3,1.1,0.3s0.8-0.1,1.2-0.4h0.1h0.1c0.3,0.1,0.6,0.2,0.8,0.2
	c0.6,0,1.1-0.2,1.5-0.6c0.1-0.1,0.2-0.1,0.3-0.1c0.1,0,0.2,0,0.4,0.1c0.3,0.1,0.7,0.1,1.1,0.1c0.1,0,0.2,0,0.3,0
	c0,0.1,0.1,0.2,0.1,0.3c-0.6,0.1-1.9,0.5-1.8,2.5C74.2,38.3,74.2,38.4,74.2,38.4 M10.3,93.9H7.6c0.5-0.1,0.9-0.3,1.2-0.7
	C9,93,9.2,92.8,9.4,92.6c0.2-0.2,0.4-0.4,0.3-0.7c0-0.1,0-0.2,0.1-0.2c0.3-0.1,0.5-0.4,0.8-0.6C10.8,91,10.9,91,11,91s0.2,0,0.3,0.1
	s0.3,0.3,0.5,0.3c0,0,0,0,0.1,0c0.6-0.1,0.9-0.6,0.7-1.1c0-0.1-0.1-0.3-0.1-0.4c-0.3-0.6-0.5-1.3-1.4-1.3l0,0
	c-0.2,0-0.1-0.2-0.1-0.2c0.1-0.3,0-0.5-0.2-0.6c-0.1-0.1-0.2-0.2-0.3-0.3c-0.2-0.1-0.2-0.3-0.1-0.4c0.2-0.1,0.2-0.4,0.3-0.5
	c0.2-0.4,0.1-1,0.5-1.3c0,0,0,0,0-0.1c0-0.3,0.3-0.6,0.4-0.8c0.1-0.2,0.2-0.2,0.4-0.2c0.1,0,0.1,0,0.2,0c0.1,0,0.2,0,0.2,0l0,0l0,0
	l0,0c0.3-0.1,0.4-0.2,0.4-0.5c0-0.2-0.1-0.4,0-0.6c0.3,0.3,0.8,0.5,1.2,0.6s0.8,0.3,1.3,0.4c0.2,0.1,0.4,0.2,0.5,0.4
	c0.2,0.3,0,0.5-0.2,0.7c0,0.1-0.1,0.1-0.1,0.1c-0.1,0-0.1-0.2-0.2-0.2c-0.1,0-0.2-0.1-0.3-0.1c0,0,0,0-0.1,0
	c-0.1,0.1-0.2,0.2-0.2,0.3c0,0.5,0.4,1,0.8,1.1c-0.1,0.3-0.1,0.6-0.4,0.7c-0.1,0.1-0.1,0.3,0,0.4c0.3,0.3,0.6,0.6,0.5,1.1l0,0
	c0.3,0.2,0.1,0.4,0,0.6s-0.3,0.3-0.4,0.5c-0.1,0.1-0.1,0.1-0.2,0.1c0,0-0.1,0-0.2-0.1c-0.1,0-0.1-0.1-0.2-0.1c-0.1,0-0.2,0-0.2,0.1
	c-0.2,0.2-0.4,0.3-0.6,0.5c-0.9,1.1-1.8,2.1-2.8,3.1C10.8,93.4,10.6,93.6,10.3,93.9 M79.6,3.8c-0.3,0.3-0.6,0.7-0.8,1.1
	c0,0.1-0.1,0.2-0.2,0.2c-0.3,0.1-0.3,0.3-0.3,0.6c0,0.2-0.1,0.4-0.1,0.5s-0.1,0.2-0.1,0.2l0,0c-0.1,0-0.1,0-0.2,0
	c-0.2,0-0.5,0.1-0.7,0.1c-0.3,0-0.4,0.2-0.5,0.5s-0.2,0.7-0.2,1c-0.3,1.1-0.6,2.1-0.9,3.2c-0.2,0.7-0.5,1.4-1.2,1.9
	c-0.5,0.3-1,0.8-1.3,1.3c-0.5,0.8-1,1.7-1.5,2.5c-0.4,0.8-0.8,1.6-1.1,2.5c-0.3,0.9-0.4,1.9-0.5,2.8c0,0.1,0,0.3-0.1,0.4
	c-0.5,0.7-0.8,1.4-1.1,2.1c-0.5,1-1.2,1.8-2.1,2.4c-0.7,0.4-1.2,1-1.9,1.3c-0.7,0.3-1.3,0.6-1.9,1c-0.8,0.6-1.5,1.3-2.3,1.8
	c-0.8,0.4-1.5,0.9-2.4,1c-0.7,0.1-1.4,0.3-2,0.6c-1,0.5-2,1.1-3.1,1.5c-1.5,0.6-3.1,1.2-4.6,1.8c-0.9,0.3-1.6,1-2.2,1.7
	c-0.2,0.2-0.3,0.3-0.4,0.3c-0.1,0-0.2-0.1-0.4-0.2c-0.2-0.1-0.3-0.3-0.5-0.4c-0.2-0.3-0.6-0.4-0.9-0.4c0,0,0,0-0.1,0
	c-0.3,0-0.6,0-0.8,0s-0.4,0-0.5-0.1h-0.1c-0.2,0-0.4,0.2-0.4,0.5s0.1,0.5,0.4,0.5c0.2,0,0.5,0,0.6,0.1c0.3,0.3,0.5,0.6,0.7,1
	C43.5,39,43,39,42.7,38.8c-0.4-0.1-0.9-0.2-1-0.8c0-0.1-0.1-0.2-0.2-0.2c-0.2-0.1-0.4-0.2-0.6-0.3c-0.1,0-0.1-0.1-0.2-0.1
	c-0.1,0-0.2,0.1-0.3,0.2c-0.2,0.4-0.5,0.7-0.8,1c-0.4,0.5-0.4,1.3,0,1.7s0.6,1,0.8,1.5c0,0.1,0,0.2,0,0.3c-0.2,0.8-0.7,1.4-1.3,2
	c-0.7,0.6-1.2,1.2-1.6,2c-0.1,0.3-0.1,0.5,0.1,0.6c0.1,0,0.3,0.1,0.1,0.2h-0.1c-0.1,0-0.1,0-0.2-0.1c-0.3-0.5-0.9-0.6-1.3-0.8
	c-0.6-0.2-1.2-0.4-1.8-0.5c-0.5-0.1-1-0.2-1.5-0.2c-0.6,0-1.1,0.1-1.6,0.4C30.7,46,30,46,29.9,46.8l0,0c-0.4,0.4-0.3,0.8-0.2,1.2
	c0.1,0.7,0.4,1.3,0.6,1.9c0,0.1,0.1,0.3,0,0.3h-0.1c-0.1,0-0.2-0.1-0.2-0.2c-0.2-0.2-0.4-0.5-0.6-0.7c-0.1-0.1-0.2-0.2-0.3-0.2
	c-0.1,0-0.2,0-0.2,0.2c0,0.1-0.1,0.1-0.1,0.1c-0.1,0-0.1,0-0.2-0.1c-0.1,0-0.2-0.1-0.3-0.1c-0.1,0-0.3,0-0.4,0.1
	c-0.3,0.2-0.7,0.4-1.1,0.5c-0.3,0.1-0.6,0.2-0.9,0.2c-0.2,0-0.4,0-0.6-0.1s-0.2-0.1-0.1-0.3c0.2-0.2,0.3-0.4,0.5-0.7
	c0.3-0.4,0.2-0.7-0.3-0.9c-0.7-0.2-1.4-0.1-2.1-0.4c-0.4-0.2-0.8-0.3-1.1-0.4c-0.1,0-0.2-0.1-0.3-0.1c-0.3,0-0.5,0.2-0.5,0.6
	c0,0.4,0.1,0.8,0.2,1.2s0.2,0.9,0.5,1.3c0.4,0.3,0.7,0.7,1,1c1.1,1,1.5,2.5,2.5,3.5c-0.1,0-0.2-0.1-0.3-0.1
	c-0.8-0.6-1.6-1.1-2.1-1.9c-0.1-0.2-0.3-0.2-0.5-0.2h-0.1c-0.2,0-0.2,0.2-0.3,0.4c-0.1,0.5,0,1,0.2,1.4c0.1,0.2,0,0.3-0.2,0.4
	c-0.2,0-0.4,0.1-0.6,0.1c-0.1,0-0.2,0-0.3,0h-0.1l0,0c-0.1,0-0.1-0.1-0.2-0.1c-0.5-0.4-0.8-0.9-0.9-1.6c-0.1-0.5-0.5-0.8-0.9-1
	C19.1,52,18.9,52,18.7,52c-0.1,0-0.2,0-0.3,0.1c-0.8,0.7-1.6,1.4-2.2,2.3c0,0.1-0.1,0.1-0.2,0.2c-0.6,0.2-1,0.8-1,1.4
	c0,1.2,0.3,2.4,0.8,3.5c0.3,0.7,0.3,1.4,0.6,2c-0.3-0.3-0.6-0.5-0.9-0.8c-0.9-0.9-2.1-1.4-3.3-1.6h-0.1c-0.1,0-0.2,0.1-0.3,0.2
	c-0.3,0.4-0.4,0.8-0.4,1.2c0,1.1,0.5,2.1,1.7,2.4c0.1,0,0.2,0.1,0.2,0.1c0.5,0.7,0.7,1.5,0.8,2.3c-0.2-0.2-0.3-0.4-0.5-0.6
	c-0.6-0.5-1.3-1-1.9-1.5c-0.1-0.1-0.3-0.2-0.4-0.2c-0.1,0-0.3,0-0.4,0.1c-0.2,0.2-0.3,0.5-0.1,0.8c0.4,0.6,0.3,1.3,0.3,1.9
	s0.3,1,0.8,1.1c0.1,0,0.3,0.1,0.3,0.2c0.1,0.4,0.4,0.6,0.6,0.9c0.1,0.1,0.2,0.2,0.1,0.3c-0.3,0.3-0.1,0.7,0,1
	c-0.1,0-0.2-0.1-0.2-0.2c-0.5-0.4-0.8-1-1.5-1.1c-0.5,0-0.9-0.2-1.4-0.3c-0.1,0-0.3,0-0.4,0c-0.1,0-0.2,0-0.3,0s-0.1,0-0.2,0
	c0,0,0,0-0.1,0c-0.3,0-0.5,0.2-0.6,0.5c0,0.2-0.1,0.4-0.1,0.6c-0.1-0.1-0.3-0.2-0.4-0.2H7.6c-0.5,0.1-0.9,1.2-0.7,1.6
	c0,0.1,0.1,0.2,0.2,0.2c0.6,0.1,0.7,0.6,1,1.1c0.1,0.1,0.2,0.2,0,0.3H8c-0.1,0-0.1-0.1-0.2-0.2c-0.2-0.4-0.6-0.6-1-0.8
	c-0.2-0.1-0.4-0.2-0.7-0.2c-0.1,0-0.1,0-0.2,0c-0.4,0.1-0.4,0.4-0.5,0.6C5.1,71,5.1,71,5,70.7c-0.1-0.2-0.5-0.4-0.8-0.4
	c-0.1,0-0.2,0-0.3,0.1C3.4,71,3,71.7,3,72.5c0,0.8,0,1.6-0.1,2.3c-0.1,0.6-0.2,1.2,0,1.8C3,76.8,3,77,3,77.2
	c0.1,0.8,0.1,1.6,0.2,2.4c0,0.2,0,0.3-0.3,0.4c-0.1,0-0.3,0.1-0.4,0.2v-77h77.1V3.8z M2,84.8c0.4,0.1,0.4,0.3,0.2,0.8
	C2.1,85.8,2,86,2,86.2V84.8z M2,90.7c0,0.1,0.1,0.1,0.1,0.2C3,91.6,3.9,92.3,5,92.7c0.2,0.1,0.3,0.1,0.1,0.4
	c-0.2,0.3-0.2,0.7,0.1,0.9H2V90.7z M12,93.9c0.2-0.2,0.4-0.4,0.5-0.5c1.1-1.2,2.2-2.4,3.2-3.6c1-1.1,2.2-2,3.5-2.8
	c0.1,0,0.1-0.1,0.2-0.2c0.1-0.2,0.3-0.4,0.5-0.4c0.1,0,0.2-0.1,0.3-0.2c0.2-0.5,0.6-0.7,1-0.9c0.2-0.1,0.2-0.2,0.2-0.4
	c-0.1-0.5-0.3-1-0.3-1.5c0-0.1,0-0.3,0.1-0.4c0.3-0.2,0.6-0.4,0.9-0.6c0.1-0.1,0.2-0.1,0.3-0.1c0.2,0,0.3,0.1,0.4,0.3
	c0.2,0.5,0.2,1,0.1,1.5c0,0.1,0,0.3,0.1,0.4l0.1,0.1c0.1,0,0.1,0,0.2,0c0.2-0.1,0.3-0.1,0.5-0.2c0.6-0.2,0.7-0.4,0.7-1.1
	c0-0.2,0-0.4,0.3-0.5s0.5-0.3,0.6-0.6c0.1-0.4,0.4-0.8,0.9-0.9s0.5-0.4,0.4-0.8c0-0.1-0.1-0.1,0-0.2c0,0,0,0,0.1,0s0.1,0,0.2,0.1
	s0.3,0.2,0.4,0.2s0.3-0.1,0.4-0.2s0.1-0.1,0.2-0.1c0,0,0.1,0,0.2,0s0.1,0,0.1,0c0.2,0,0.3-0.2,0.2-0.4c-0.1-0.3-0.1-0.5-0.2-0.8
	c-0.1-0.2,0-0.3,0.2-0.4c0.1,0,0.3-0.1,0.3-0.2c0-0.4,0.3-0.4,0.6-0.5c0.2-0.1,0.4-0.1,0.7-0.2c0.1,0,0.1,0,0.2,0
	c0.3,0,0.5,0.1,0.6,0.4c0.1,0.2,0.1,0.4,0.2,0.5c0.1,0.2,0.2,0.2,0.4,0.2c0.1,0,0.3-0.1,0.4-0.2c0.2-0.3,0.2-0.5-0.1-0.7
	c-0.2-0.2-0.1-0.4,0.1-0.6c0-0.1,0.1-0.1,0.1-0.1c0.1,0,0.2,0.1,0.3,0.1s0.1,0,0.2,0c0.1,0,0.1,0,0.2-0.1c0.1-0.1,0.1-0.2,0.1-0.4
	c0-0.1-0.1-0.3-0.1-0.4c-0.1-0.2-0.1-0.4,0.1-0.5c0.2,0.2,0.4,0.3,0.5,0.3c0.2,0,0.3-0.2,0.4-0.5c0.1-0.4,0.4-0.4,0.7-0.4
	c0.5,0,0.6-0.2,0.6-0.7c0-0.1,0-0.2,0-0.2s0.1,0,0.1,0.1c0.1,0.1,0.1,0.1,0.2,0.1c0.1,0,0.2-0.1,0.2-0.2s0.1-0.1,0.2-0.1
	c0,0,0.1,0,0.2,0c0.2,0.1,0.3,0.1,0.4,0.1c0.2,0,0.3-0.1,0.5-0.4c0.1-0.2,0.1-0.4,0.4-0.6c0.5-0.2,0.9-0.6,1-1.1
	c0-0.2,0.1-0.3,0.3-0.4c0.7-0.3,1-0.8,1.2-1.5c0-0.1,0.1-0.2,0.2-0.2l0,0l0,0c0.3,0,0.3-0.2,0.4-0.4c0-0.1,0-0.2,0.2-0.3
	c0.3-0.1,0.6-0.3,0.9-0.4c0.3-0.1,0.6-0.3,0.8-0.5c0.6-0.6,0.8-1.4,1.1-2.2c0-0.2,0.1-0.3,0.2-0.4c0.3-0.3,0.6-0.6,0.4-1.1
	c0.2,0.2,0.3,0.4,0.4,0.6c0.1,0.1,0.1,0.2,0.3,0.2c0,0,0,0,0.1,0c0.2-0.1,0.5-0.1,0.7-0.3c0.1-0.1,0.1-0.1,0.2-0.1
	c0.1,0,0.1,0,0.2,0.1c0.1,0,0.2,0.1,0.3,0.1s0.2,0,0.2-0.2c0.1-0.2,0.2-0.3,0.4-0.3c0.1,0,0.2,0,0.3,0.1c0.2,0.1,0.5,0.1,0.7,0.1
	c0.7,0,1.3-0.5,1.2-1.4c0-0.2,0-0.4,0.1-0.6c0.2-0.3,0.2-0.5-0.2-0.7c-0.2-0.1-0.3-0.2-0.5-0.3c0.3-0.1,0.6-0.2,1-0.3h0.1
	c0.1,0,0.3,0,0.4,0.1c0.2,0.1,0.4,0.2,0.6,0.2c0.2,0,0.5-0.1,0.8-0.3c1.2-1,2.5-2,3.1-3.5c0.2-0.5,0.6-0.8,1.1-0.9
	c0.3-0.1,0.5-0.1,0.8-0.2c0.6-0.1,1.2-0.1,1.7-0.5c0.4-0.3,0.9-0.5,1.1-1c0.1-0.3,0.2-0.6,0.5-0.8c0.4-0.2,0.8-0.5,1.1-0.9
	c0.1-0.1,0.1-0.1,0.2-0.1c0,0,0.1,0,0.1,0.1c0.2,0.4,0.5,0.9,0.8,1.3c0.1,0.2,0.2,0.4,0.4,0.4c0,0,0,0,0.1,0
	c0.3-0.1,0.7-0.4,0.7-0.7c0-0.1,0-0.2,0.1-0.2c0,0,0,0,0.1,0s0.1,0,0.2,0c0.2,0,0.3-0.2,0.5-0.4c0-0.1,0.1-0.2,0.2-0.2
	c0,0,0,0,0.1,0c0.1,0.1,0,0.2-0.1,0.3c-0.4,0.4-0.7,0.9-1.1,1.3c-0.1,0.1-0.2,0.2-0.4,0.2c-0.4,0-0.6,0.2-0.7,0.6
	c0,0.2,0,0.5-0.2,0.7c-0.1,0.1-0.1,0.1-0.2,0.1l0,0c-0.1,0-0.1-0.2-0.1-0.2c0-0.3-0.1-0.4-0.4-0.5h-0.1c-0.1,0-0.3,0.1-0.3,0.2
	c-0.1,0.2-0.1,0.4,0,0.6c0.1,0.1,0.2,0.2,0.1,0.3c-0.2,0.4-0.2,0.9-0.6,1.1c-0.1,0.1-0.2,0.3-0.3,0.4c-0.4,0.5-0.6,1.1-0.9,1.6
	c0,0.1-0.3,0.3,0,0.4c0.1,0,0.2,0.1,0.3,0.1s0.2,0,0.2-0.2c0.6-0.8,1.3-1.5,1.8-2.3c0.5-0.7,1.1-1.3,1.6-1.9
	c0.8-0.9,1.5-1.9,2.4-2.7c0.6-0.7,1.4-1.3,1.9-2.1c0.1-0.1,0.1-0.1,0.2-0.2c0.6-0.2,1-0.9,0.9-1.5c0-0.2-0.1-0.2-0.2-0.2
	s-0.1,0-0.2,0.1c-0.2,0.2-0.4,0.4-0.6,0.6c-0.1,0.1-0.1,0.1-0.2,0.1c0,0,0,0-0.1,0c-0.1-0.1-0.2-0.1-0.3-0.1c-0.2,0-0.4,0.2-0.4,0.4
	c-0.3,0.7-0.6,1.3-1.1,1.8c-0.1,0.1-0.2,0.3-0.4,0.3c-0.1,0-0.2,0-0.3-0.1h-0.1c-0.1,0-0.1,0-0.2,0.1h-0.1c0,0-0.1,0-0.1-0.1
	s0-0.2,0.1-0.2c0.3-0.3,0.6-0.6,0.9-0.8c0.5-0.3,0.5-1.1,0-1.4c-0.3-0.2-0.5-0.5-0.6-0.9c0.1,0.1,0.3,0.2,0.4,0.2
	c0.2,0,0.3-0.1,0.4-0.3c0.1-0.1,0.2-0.2,0.3-0.2c0.3-0.1,0.6-0.3,0.8-0.6c0.1-0.1,0.2-0.2,0.2-0.2c0.1,0,0.1,0,0.2,0.1
	s0.1,0.1,0.2,0.1s0.1,0,0.2,0c0.4-0.1,0.6-0.8,0.3-1.1c-0.1-0.1,0-1,0.1-1.1h0.1h0.1c0.1,0,0.2,0,0.3,0c0.3,0,0.4-0.2,0.3-0.6
	c0-0.3-0.1-0.6-0.1-1.1c0.4,0.7,1,0.8,1.6,0.9c0.1,0,0.1,0,0.2,0c0.3,0,0.6-0.2,0.6-0.6c0-0.1,0.1-0.2,0.1-0.2h0.1
	c0.2,0.1,0.4,0.1,0.5,0.1c0.2,0,0.3-0.1,0.5-0.5c0-0.1,0.1-0.1,0.1-0.1h0.1c0.2,0.2,0.4,0.2,0.6,0.3c0.1,0.1,0.2,0.1,0.1,0.3
	c-0.3,0.3-0.6,0.7-1,1c-0.4,0.4-0.8,0.7-1.2,1.1c-0.2,0.2-0.3,0.4-0.1,0.6c0.1,0.1,0.2,0.1,0.2,0.1c0.1,0,0.2-0.1,0.3-0.2
	c0.2-0.2,0.5-0.4,0.6-0.6c1.1-1.2,2.5-2.2,3.5-3.6c0.1-0.1,0.2-0.2,0.3-0.3c0.5-0.4,1-0.8,1.3-1.3c0.6-0.8,1.3-1.5,2-2.2
	c0.5-0.6,1.1-1.1,1.5-1.8c0.1-0.2,0.1-0.3-0.1-0.5c-0.1,0-0.1-0.1-0.2-0.1s-0.2,0.1-0.3,0.2c-0.4,0.5-0.8,0.9-1.3,1.4
	c-0.7,0.8-1.4,1.5-2.3,2c-0.1,0-0.1,0.1-0.2,0.1c0,0,0,0-0.1,0c-0.1-0.1,0-0.2,0-0.3c0-0.5,0.2-0.9,0.1-1.4c0-0.2,0-0.3,0.3-0.3
	c0.7,0,0.8-0.3,0.8-0.9c0-0.3-0.1-0.6-0.1-1c0-0.2,0-0.5,0.1-0.5l0,0c0.3,0,0.1,0.3,0.2,0.5c0,0.3,0.2,0.4,0.5,0.5c0,0,0,0,0.1,0
	c0.2,0,0.3-0.2,0.3-0.4s0.2-0.3,0.3-0.3c0.1,0,0.1,0,0.2,0s0.1,0,0.2,0c0.3,0,0.4-0.1,0.5-0.5c0.1-0.7,0.1-1.3-0.1-2
	c-0.1-0.2-0.2-0.4-0.4-0.5c-0.1,0-0.2-0.1-0.2-0.2c0-0.1,0.1-0.1,0.2-0.2h0.1c0.7-0.4,1.6-0.3,2.4-0.6H81c0.1,0,0.2,0.1,0.2,0.2
	c0.1,0.4,0.3,0.7,0.6,0.9c0.3,0.3,0.3,0.4,0,0.7c-0.2,0.3-0.5,0.5-0.5,0.9c0,0.1-0.2,0.3,0,0.3c0,0,0.1,0,0.2,0s0.2,0,0.3-0.1
	c0.1,0,0.1-0.1,0.2-0.2c0.2-0.2,0.4-0.4,0.5-0.6c0.7-0.8,1.5-1.7,2.2-2.5c1-1.2,1.9-2.3,2.7-3.6c0.7-1,1.5-1.8,2.1-2.8
	c0.8-1.2,1.6-2.3,2.4-3.4c0.3-0.5,0.6-1,1-1.4c1.1-1.1,2.1-2.3,3.1-3.5c1.1-1.3,2.1-2.6,3.1-3.9c0.9-1.1,1.7-2.2,2.5-3.4
	c0.6-0.8,1.1-1.7,1.7-2.4c0.5-0.5,1-1,1.4-1.6s0.8-1.3,1.1-1.9v88H12V93.9z" />
</svg>